Coordinates
version=1
nRows=15
nColumns=34
inDegrees=yes

Units are S.I. units (second, meters, Newtons, ...)
If the header above contains a line with 'inDegrees', this indicates whether rotational values are in degrees (yes) or radians (no).

endheader
time	pelvis_tilt	pelvis_list	pelvis_rotation	pelvis_tx	pelvis_ty	pelvis_tz	hip_flexion_r	hip_adduction_r	hip_rotation_r	knee_angle_r	ankle_angle_r	subtalar_angle_r	mtp_angle_r	hip_flexion_l	hip_adduction_l	hip_rotation_l	knee_angle_l	ankle_angle_l	subtalar_angle_l	mtp_angle_l	lumbar_extension	lumbar_bending	lumbar_rotation	arm_flex_r	arm_add_r	arm_rot_r	elbow_flex_r	pro_sup_r	arm_flex_l	arm_add_l	arm_rot_l	elbow_flex_l	pro_sup_l
      0.00000000	     -2.38104513	      1.19437566	     -3.84210078	      0.05625185	      0.90305806	     -0.12713584	      8.63982271	     -2.20372770	     -0.71365006	     10.77320596	     -0.72784645	     -9.83525178	      0.00000000	      1.99126721	     -0.67712567	      0.22088753	      0.00000000	      5.68799428	      3.73321572	      0.00000000	     -8.02914779	     -0.96904210	      4.32931874	     45.23099622	     10.88513089	     45.32466430	    118.05401870	    115.97506148	     56.32242027	     10.10729773	     61.86058744	    121.45952299	     96.42015102
      0.01666670	     -5.97531819	      1.15539691	     -2.69761355	      0.05617832	      0.89548911	     -0.12363413	     12.24231244	     -1.72948125	     -0.34693124	     10.50883406	      1.15075899	     -9.82011220	      0.00000000	      6.47379830	     -1.15616519	      1.00076660	      0.00000000	      4.16672359	      5.36819782	      0.00000000	     -4.22301191	     -0.60091375	      3.66329409	     46.41492872	     12.82529852	     45.12185348	    120.14661192	    115.23403402	     59.31712228	     10.23207370	     60.39177319	    123.42300221	     96.96032218
      0.03333330	     -7.23770740	      1.49292263	     -2.51171240	      0.05355641	      0.89336704	     -0.11919305	     13.09645924	     -1.72232149	     -1.24428346	      9.13244009	      1.54255591	     -9.85002421	      0.00000000	      8.13826781	     -1.39565387	      0.35001818	      0.00000000	      3.10238769	      5.52656280	      0.00000000	     -3.80707111	     -0.80296352	      4.24832694	     46.76474708	     13.66680199	     45.67195405	    120.86318792	    114.78113012	     60.82083823	      9.59506242	     59.08589515	    123.98134073	     97.38386942
      0.05000000	     -7.92622174	      1.56936199	     -2.01647060	      0.05172602	      0.89610780	     -0.11688548	     13.01202045	     -1.53919628	     -1.71479328	      7.51317834	      1.55676456	     -9.59119462	      0.00000000	      9.13718163	     -1.57404925	      0.20097816	      0.00000000	      2.57852380	      5.51673454	      0.00000000	     -4.51780735	     -0.76241453	      4.70979443	     46.09741406	     13.54508809	     46.40703590	    120.31344730	    114.64123331	     61.32699773	      9.33010664	     59.08637486	    123.90963382	     97.52521843
      0.06666670	     -8.73521494	      1.54455974	     -1.39933387	      0.04920350	      0.88992119	     -0.11296860	     13.17390832	     -1.27764117	     -2.68900591	      5.98312859	      1.96925645	     -8.64438517	      0.00000000	     10.24953265	     -1.79377239	      0.40323182	      0.00000000	      2.60628409	      5.10748813	      0.00000000	     -4.92031044	     -0.31696306	      4.91186263	     45.85436133	     13.27725432	     47.29540857	    118.90140880	    113.67627975	     61.05218070	      8.80107780	     59.67253270	    124.28896604	     97.82926233
      0.08333330	     -9.20285466	      1.46505715	     -1.11494237	      0.04495111	      0.89046062	     -0.10968147	     13.07110048	     -0.89564689	     -2.85882761	      4.61769721	      1.69775258	     -8.44241479	      0.00000000	     11.02667995	     -2.08326804	      0.52598943	      0.00000000	      2.57777380	      5.03555867	      0.00000000	     -5.62799235	      0.02355454	      5.55708724	     45.60959043	     13.31502032	     47.68894454	    118.59762158	    113.42964750	     60.59293258	      8.71214467	     59.97139142	    124.22706527	     97.82267910
      0.10000000	     -9.85002055	      1.48968280	     -0.79754437	      0.04088897	      0.88701473	     -0.10705436	     13.39211634	     -0.70208939	     -3.18744078	      3.60325707	      1.64647109	     -7.89094366	      0.00000000	     12.04270315	     -2.22145145	      1.09629164	      0.00000000	      2.43545483	      3.93296135	      0.00000000	     -5.82288697	      0.33651908	      5.34163305	     46.53842009	     14.69235659	     52.29100030	    118.21180028	    110.59212613	     59.86893859	      7.97420333	     60.39760838	    124.85909292	     97.07271801
      0.11666670	    -10.53372965	      1.41306919	     -0.42239914	      0.03746985	      0.88567671	     -0.10480444	     13.69704166	     -0.40012813	     -3.72291677	      2.40621921	      0.86993127	     -7.84402990	      0.00000000	     13.14146457	     -2.41564979	      1.43643577	      0.00000000	      2.44484874	      4.03116264	      0.00000000	     -5.86565929	      0.42437601	      5.73441378	     46.96280408	     15.24799312	     55.76869729	    118.70968003	    110.09982983	     59.47288813	      8.28916315	     61.21106135	    124.44628329	     96.81311436
      0.13333330	    -11.00859302	      1.31651488	     -0.06545555	      0.03503780	      0.88461709	     -0.10059583	     13.83927575	     -0.07463288	     -3.86684453	      1.35905602	      0.19012200	     -7.77785757	      0.00000000	     13.95016008	     -2.66614344	      2.35890005	      0.00000000	      1.88379560	      2.70777405	      0.00000000	     -6.25398109	      0.91889606	      5.48748673	     47.24947561	     16.13054148	     58.60916771	    117.45141090	    105.00547372	     58.81964600	      7.56726674	     61.30758784	    125.46979717	     93.52483684
      0.15000000	    -11.30823538	      1.43571296	      0.05222394	      0.03005161	      0.88555137	     -0.09781523	     14.10309947	      0.04472685	     -4.20118887	      0.81663799	     -0.09830004	     -7.74923893	      0.00000000	     14.58396997	     -2.73435374	      2.56733104	      0.00000000	      1.78952092	      2.86865151	      0.00000000	     -7.03590595	      0.83290093	      6.04843369	     46.82798139	     16.63222896	     59.45021499	    117.55651847	    104.95229705	     58.58355586	      7.43281059	     61.53877668	    125.04439179	     93.45697669
      0.16666670	    -11.52092226	      1.49162736	      0.06174426	      0.02427243	      0.88400382	     -0.09444267	     14.42815972	      0.22658076	     -4.26119549	      0.45167814	     -0.13515439	     -7.74286141	      0.00000000	     15.15374152	     -2.89179789	      2.56062001	      0.00000000	      1.79302085	      2.85186284	      0.00000000	     -7.86105827	      0.67972519	      6.06337294	     46.73748845	     16.52042436	     59.56110558	    117.48367285	    104.94232090	     58.49742453	      7.33375184	     61.57002747	    124.93588249	     93.44173731
      0.18333330	    -12.21156651	      1.43881226	      0.14392453	      0.02056048	      0.87993087	     -0.09266289	     15.23605749	      0.51103181	     -4.71988340	      0.00000000	     -0.98983869	     -7.51855160	      0.00000000	     16.27546083	     -3.12550973	      2.74926044	      0.01920325	      1.31611787	      2.73495917	      0.00000000	     -8.43297859	      0.92221914	      6.50328876	     46.85124532	     17.14303198	     60.72971159	    117.67918880	    104.84249049	     59.17686478	      7.64773154	     61.72955921	    124.62213737	     93.27280725
      0.20000000	    -12.95101065	      1.27801823	      0.31892144	      0.01816278	      0.87899360	     -0.09067380	     16.29436942	      0.79954143	     -5.08772827	      0.00000000	     -1.34027085	     -7.57266405	      0.00000000	     17.83038598	     -3.43543697	      3.18404254	      0.71003568	      1.28392338	      1.51538556	      0.00000000	     -8.55550699	      0.90145725	      6.35650675	     47.33507673	     16.98695779	     62.51212301	    118.43876326	    104.51813630	     59.51794630	      7.68218094	     62.28179971	    124.27916368	     92.78051195
      0.21666670	    -13.40594617	      1.30958816	      0.57992673	      0.01422397	      0.88098001	     -0.08757730	     17.10303185	      0.88430775	     -5.33125130	      0.00000000	     -1.41851644	     -7.68333216	      0.00000000	     19.16859064	     -3.49207604	      3.36748585	      1.60310579	      1.05246963	      0.66860573	      0.00000000	     -9.18619393	      0.80354240	      6.32103745	     47.51723144	     17.25136299	     63.09280585	    118.71748963	    104.25310814	     59.89711954	      7.60283755	     62.52614339	    124.14028773	     92.40026449
      0.23333330	    -14.27282458	      1.25306557	      1.04611916	      0.01133800	      0.87909488	     -0.08631952	     18.28395408	      0.97761227	     -5.70694641	      0.00000000	     -1.57296371	     -8.05536858	      0.00000000	     20.92127950	     -3.56246672	      4.33653334	      2.54562157	      0.38855412	     -1.61567135	      0.00000000	     -9.23032033	      0.86968478	      6.20930330	     47.52670458	     17.06783415	     63.58850956	    119.16497711	    103.31986938	     60.09095023	      7.43282095	     62.96041856	    124.11728284	     91.03864681
